# xmcd CD database file
#
# Track frame offsets:
#	150
#	23811
#	43871
#	59305
#	84020
#	99335
#	129250
#	143858
#	160558
#	177245
#	199790
#	224932
#	249590
#
# Disc length: 3628 seconds
#
# Revision: 0
# Processed by: cddbd v1.5.2PL0 Copyright (c) Steve Scherf et al.
# Submitted via: CDex 1.70beta2
#
DISCID=ae0e2a0d
DTITLE=Sam Paine Trio - Live At The J.T. Festival 2009
DYEAR=2009
DGENRE=Blues
TTITLE0=Torn Down
TTITLE1=I Shot The Sherriff
TTITLE2=Wind Cries Mary
TTITLE3=White Room
TTITLE4=Take Away My Blues
TTITLE5=Worried Life Of Blues
TTITLE6=No Regrets
TTITLE7=Walking By Myself
TTITLE8=Waiting On The World To Change
TTITLE9=Hey Joe
TTITLE10=Hold On Me
TTITLE11=Hideaway
TTITLE12=Since I Met You Baby
EXTD=YEAR: 2009
EXTT0=
EXTT1=
EXTT2=
EXTT3=
EXTT4=
EXTT5=
EXTT6=
EXTT7=
EXTT8=
EXTT9=
EXTT10=
EXTT11=
EXTT12=
PLAYORDER=
